# xmcd
#
# Track frame offsets:
#	150
#	16687
#	33594
#	50245
#	66462
#	81027
#	100111
#	114283
#	140337
#	156100
#	177239
#	197373
#	213227
#
# Disc length: 3017 seconds
#
# Revision: 0
# Processed by: cddbd v1.4PL0 Copyright (c) Steve Scherf et al.
# Submitted via: EasyCDDAExtractor 5.0.5.1
#
DISCID=a80bc70d
DTITLE=Jennifer Lopez - This Is Me...Then
DYEAR=2002
DGENRE=
TTITLE0=Still
TTITLE1=Loving You
TTITLE2=I'm Glad
TTITLE3=The One
TTITLE4=Dear Ben
TTITLE5=All I Have
TTITLE6=Jenny Form the Block
TTITLE7=Again
TTITLE8=You Belong to Me
TTITLE9=I've Been Thinkin'
TTITLE10=Baby I Love You!
TTITLE11=The One (Version 2)
TTITLE12=I'm Gonna Be Alright
EXTD=
EXTT0=
EXTT1=
EXTT2=
EXTT3=
EXTT4=
EXTT5=
EXTT6=
EXTT7=
EXTT8=
EXTT9=
EXTT10=
EXTT11=
EXTT12=
PLAYORDER=
